<svg xmlns="http://www.w3.org/2000/svg" version="1.1" xmlns:xlink="http://www.w3.org/1999/xlink" width="2000" height="72" viewBox="0 0 2000 72"><svg xml:space="preserve" width="2000" height="72" data-version="2" data-id="lg_Xl1pE1lBrQklbg1W4K" viewBox="0 0 577 72" x="0" y="0"><rect width="100%" height="100%" fill="transparent"></rect><g transform="translate(347.46 36)"><filter id="a" width="140%" height="140%" x="-20%" y="-20%"><feGaussianBlur in="SourceAlpha"></feGaussianBlur><feOffset result="oBlur"></feOffset><feFlood flood-color="#852828" flood-opacity="1"></feFlood><feComposite in2="oBlur" operator="in"></feComposite><feMerge><feMergeNode></feMergeNode><feMergeNode in="SourceGraphic"></feMergeNode></feMerge></filter><g filter="url(#a)"><path fill="#273ed4" d="M-191.465 33.255h-8.43v-60.56h-24.14v-6.94h56.81v6.94h-24.24z"></path><rect width="56.81" height="67.5" x="-28.41" y="-33.75" fill="none" rx="0" ry="0" transform="translate(-195.13)"></rect><path fill="#273ed4" d="M-137.815 34.375q-7.22 0-12.49-3.23-5.28-3.24-8.14-9.16-2.86-5.93-2.86-14 0-8.11 2.86-14.06 2.86-5.95 8.07-9.19 5.2-3.23 12.23-3.23 4.03 0 8.09 1.29 4.05 1.29 7.4 4.45 3.35 3.16 5.39 8.67 2.04 5.51 2.04 13.9h-41.01v-6.37h34.17l-2.25 2.95q-.24-6.66-2.16-10.69-1.92-4.03-4.99-5.83-3.07-1.81-6.82-1.81-4.45 0-7.69 2.32-3.23 2.32-4.97 6.77-1.73 4.46-1.73 10.88 0 9.47 3.87 14.62 3.86 5.16 10.99 5.16 5.11 0 8.6-2.58 3.49-2.58 5.13-7.45l7.74 2.62q-1.83 4.41-4.88 7.53t-7.24 4.78q-4.2 1.66-9.35 1.66"></path><rect width="46.08" height="52.87" x="-23.04" y="-26.43" fill="none" rx="0" ry="0" transform="translate(-137.76 8.44)"></rect><path fill="#273ed4" d="M-91.585 34.375q-5.06 0-8.79-1.94-3.72-1.95-5.74-5.32-2.01-3.38-2.01-7.64 0-4.55 2.67-8.39 2.67-3.85 8.27-6.17t14.37-2.32h8.44l-.85.85V.675q0-6.09-2.43-9.35-2.44-3.26-8.16-3.26-5.39 0-8.3 2.79-2.9 2.79-3.09 7.48l-8.86-2.02q.42-4.08 3.12-7.43 2.69-3.35 7.22-5.37 4.52-2.01 10.47-2.01 6.14 0 10.01 2.32t5.7 6.68q1.82 4.36 1.82 10.5v23.11q0 1.54.45 2.06.44.52 1.9.52h2.86v6.56h-5.02q-3.19 0-5.34-1.99-2.16-2-2.16-5.04v-3.57h1.17q-.75 1.97-2.15 4.01-1.41 2.04-3.57 3.8-2.15 1.76-5.13 2.84-2.98 1.07-6.87 1.07m1.79-6.56q3.89 0 7.21-1.92 3.33-1.92 5.37-6.02 2.04-4.11 2.04-10.67v-.42h-7.92q-6.24 0-9.82 1.64-3.59 1.64-5.09 4.06-1.5 2.41-1.5 4.8 0 2.39 1.08 4.31 1.08 1.92 3.23 3.07 2.16 1.15 5.4 1.15"></path><rect width="45.61" height="52.87" x="-22.8" y="-26.43" fill="none" rx="0" ry="0" transform="translate(-84.82 8.44)"></rect><path fill="#273ed4" d="M-45.015 33.255h-7.88v-50.63h7.41v8.68q1.78-3.94 5.91-6.87 4.12-2.93 9.79-2.93 5.02 0 8.75 2.74 3.72 2.74 5.55 7.76 2.39-4.64 6.54-7.57 4.15-2.93 9.68-2.93 7.26 0 11.51 5.27 4.24 5.28 4.24 14.6v31.88h-7.88V1.985q0-4.31-.89-7.43-.89-3.11-2.93-4.8t-5.55-1.69q-3.85 0-6.92 2.18t-4.82 6.35q-1.76 4.17-1.76 10.17v26.49h-7.88V1.985q0-4.31-.89-7.43-.89-3.11-2.9-4.8-2.02-1.69-5.49-1.69-3.84 0-6.94 2.16-3.09 2.15-4.87 6.33-1.78 4.17-1.78 10.21z"></path><rect width="69.38" height="51.75" x="-34.69" y="-25.88" fill="none" rx="0" ry="0" transform="translate(-17.7 7.88)"></rect><path fill="#273ed4" d="M82.045 34.375q-10.07 0-17.41-4.24t-11.3-12.07q-3.96-7.83-3.96-18.56 0-10.78 3.96-18.59 3.96-7.8 11.3-12.04 7.34-4.25 17.41-4.25 10.08 0 17.42 4.25 7.33 4.24 11.3 12.04 3.96 7.81 3.96 18.59 0 10.73-3.96 18.56-3.97 7.83-11.3 12.07-7.34 4.24-17.42 4.24m0-6.93q7.27 0 12.54-3.4 5.28-3.4 8.14-9.68 2.86-6.28 2.86-14.86 0-8.63-2.86-14.88-2.86-6.26-8.14-9.66-5.27-3.4-12.54-3.4-7.21 0-12.51 3.4t-8.16 9.66q-2.86 6.25-2.86 14.88 0 8.58 2.86 14.86 2.86 6.28 8.16 9.68 5.3 3.4 12.51 3.4"></path><rect width="65.35" height="69.75" x="-32.67" y="-34.88" fill="none" rx="0" ry="0" transform="translate(82.55)"></rect><path fill="#273ed4" d="M133.255 33.255h-7.87v-50.63h7.4v11.44l-.33-2.06q2.02-4.36 6.38-7.43 4.36-3.07 10.59-3.07 5.39 0 9.28 2.39 3.89 2.39 6 6.82t2.11 10.66v31.88h-7.87V1.985q0-6.23-2.56-10.08-2.55-3.84-8.41-3.84-6.33 0-10.52 4.81-4.2 4.8-4.2 13.89z"></path><rect width="41.43" height="51.75" x="-20.71" y="-25.88" fill="none" rx="0" ry="0" transform="translate(146.6 7.88)"></rect><path fill="#273ed4" d="M200.445 34.375q-7.22 0-12.49-3.23-5.28-3.24-8.14-9.16-2.85-5.93-2.85-14 0-8.11 2.85-14.06 2.86-5.95 8.07-9.19 5.2-3.23 12.23-3.23 4.03 0 8.09 1.29 4.05 1.29 7.4 4.45 3.36 3.16 5.39 8.67 2.04 5.51 2.04 13.9h-41.01v-6.37h34.17l-2.25 2.95q-.23-6.66-2.16-10.69-1.92-4.03-4.99-5.83-3.07-1.81-6.82-1.81-4.45 0-7.69 2.32-3.23 2.32-4.97 6.77-1.73 4.46-1.73 10.88 0 9.47 3.87 14.62 3.86 5.16 10.99 5.16 5.11 0 8.6-2.58 3.49-2.58 5.13-7.45l7.74 2.62q-1.83 4.41-4.88 7.53-3.04 3.12-7.24 4.78-4.19 1.66-9.35 1.66"></path><rect width="46.07" height="52.87" x="-23.04" y="-26.43" fill="none" rx="0" ry="0" transform="translate(200.5 8.44)"></rect></g></g><circle r="10.74" fill="#273ed4" transform="translate(24.78 31.37)scale(.9285)"></circle><circle r="10.74" fill="#273ed4" transform="translate(50.25 18.07)scale(.9285)"></circle><path fill="#273ed4" d="M5.5 69.42C5.5 55.927 14.21 45 24.945 45s19.442 10.928 19.442 24.42"></path><circle r="10.74" fill="#273ed4" transform="translate(75.58 31.37)scale(.9285)"></circle><path fill="#273ed4" d="M56.299 69.42c0-13.492 8.71-24.42 19.443-24.42s19.443 10.928 19.443 24.42"></path><path fill="#273ed4" d="M30.97 56.123c0-13.482 8.709-24.42 19.442-24.42s19.452 10.938 19.452 24.42"></path></svg></svg>