<svg width="317" height="76" viewBox="0 0 317 76" fill="none" xmlns="http://www.w3.org/2000/svg">
<path d="M82.5102 29.6193V23.9091H107.098V29.6193H98.2772V53H91.3454V29.6193H82.5102ZM121.167 53.4119C118.885 53.4119 116.915 52.9621 115.258 52.0625C113.61 51.1534 112.341 49.8608 111.451 48.1847C110.57 46.4991 110.13 44.4962 110.13 42.1761C110.13 39.9223 110.575 37.9527 111.465 36.267C112.355 34.572 113.61 33.2557 115.229 32.3182C116.849 31.3712 118.757 30.8977 120.954 30.8977C122.507 30.8977 123.927 31.1392 125.215 31.6222C126.503 32.1051 127.616 32.8201 128.553 33.767C129.491 34.714 130.22 35.8835 130.741 37.2756C131.262 38.6581 131.522 40.2443 131.522 42.0341V43.767H112.559V39.733H125.059C125.05 38.9943 124.874 38.3362 124.533 37.7585C124.193 37.1809 123.724 36.7311 123.127 36.4091C122.54 36.0777 121.863 35.9119 121.096 35.9119C120.319 35.9119 119.623 36.0871 119.008 36.4375C118.392 36.7784 117.905 37.2472 117.545 37.8438C117.185 38.4309 116.996 39.0985 116.977 39.8466V43.9517C116.977 44.8419 117.152 45.6231 117.502 46.2955C117.853 46.9583 118.35 47.4744 118.994 47.8438C119.638 48.2131 120.405 48.3977 121.295 48.3977C121.91 48.3977 122.469 48.3125 122.971 48.142C123.473 47.9716 123.904 47.7206 124.264 47.3892C124.623 47.0578 124.893 46.6506 125.073 46.1676L131.451 46.3523C131.186 47.7822 130.604 49.0275 129.704 50.0881C128.814 51.1392 127.644 51.9583 126.195 52.5455C124.747 53.1231 123.07 53.4119 121.167 53.4119ZM144.82 53.3693C143.428 53.3693 142.192 53.1373 141.113 52.6733C140.043 52.1998 139.195 51.4896 138.57 50.5426C137.955 49.5862 137.647 48.3883 137.647 46.9489C137.647 45.7367 137.86 44.714 138.286 43.8807C138.712 43.0473 139.299 42.3703 140.048 41.8494C140.796 41.3286 141.657 40.9356 142.633 40.6705C143.608 40.3958 144.65 40.2112 145.758 40.1165C146.998 40.0028 147.997 39.8845 148.755 39.7614C149.512 39.6288 150.062 39.4441 150.403 39.2074C150.753 38.9612 150.928 38.6155 150.928 38.1705V38.0994C150.928 37.3703 150.677 36.8068 150.175 36.4091C149.673 36.0114 148.996 35.8125 148.144 35.8125C147.226 35.8125 146.487 36.0114 145.928 36.4091C145.369 36.8068 145.014 37.3561 144.863 38.0568L138.457 37.8295C138.646 36.5038 139.134 35.3201 139.92 34.2784C140.715 33.2273 141.804 32.4034 143.187 31.8068C144.579 31.2008 146.25 30.8977 148.201 30.8977C149.593 30.8977 150.876 31.0634 152.05 31.3949C153.225 31.7169 154.247 32.1903 155.119 32.8153C155.99 33.4309 156.662 34.1884 157.136 35.0881C157.619 35.9877 157.86 37.0152 157.86 38.1705V53H151.326V49.9602H151.155C150.767 50.6989 150.27 51.3239 149.664 51.8352C149.067 52.3466 148.362 52.7301 147.548 52.9858C146.743 53.2415 145.833 53.3693 144.82 53.3693ZM146.965 48.8239C147.713 48.8239 148.386 48.6723 148.982 48.3693C149.588 48.0663 150.071 47.6496 150.431 47.1193C150.791 46.5795 150.971 45.9545 150.971 45.2443V43.1705C150.772 43.2746 150.53 43.3693 150.246 43.4545C149.972 43.5398 149.669 43.6203 149.337 43.696C149.006 43.7718 148.665 43.8381 148.315 43.8949C147.964 43.9517 147.628 44.0038 147.306 44.0511C146.653 44.1553 146.094 44.3163 145.63 44.5341C145.175 44.7519 144.825 45.036 144.579 45.3864C144.342 45.7273 144.224 46.1345 144.224 46.608C144.224 47.3277 144.479 47.8769 144.991 48.2557C145.512 48.6345 146.17 48.8239 146.965 48.8239ZM165.707 53V31.1818H172.312V35.1875H172.554C173.008 33.8617 173.775 32.8153 174.855 32.0483C175.934 31.2812 177.222 30.8977 178.719 30.8977C180.234 30.8977 181.531 31.286 182.611 32.0625C183.69 32.839 184.377 33.8807 184.67 35.1875H184.898C185.305 33.8902 186.1 32.8532 187.284 32.0767C188.468 31.2907 189.864 30.8977 191.474 30.8977C193.539 30.8977 195.215 31.5606 196.503 32.8864C197.791 34.2027 198.434 36.0114 198.434 38.3125V53H191.488V39.9034C191.488 38.8144 191.209 37.9858 190.65 37.4176C190.092 36.84 189.367 36.5511 188.477 36.5511C187.521 36.5511 186.768 36.8636 186.219 37.4886C185.679 38.1042 185.409 38.9328 185.409 39.9744V53H178.733V39.8324C178.733 38.8191 178.458 38.0189 177.909 37.4318C177.36 36.8447 176.635 36.5511 175.736 36.5511C175.13 36.5511 174.594 36.6979 174.13 36.9915C173.666 37.2756 173.302 37.6828 173.037 38.2131C172.781 38.7434 172.653 39.3684 172.653 40.0881V53H165.707ZM258.183 38.4545C258.183 41.6553 257.568 44.3684 256.337 46.5938C255.106 48.8191 253.439 50.5095 251.337 51.6648C249.244 52.8201 246.895 53.3977 244.291 53.3977C241.678 53.3977 239.324 52.8153 237.232 51.6506C235.139 50.4858 233.477 48.7955 232.246 46.5795C231.024 44.3542 230.413 41.6458 230.413 38.4545C230.413 35.2538 231.024 32.5407 232.246 30.3153C233.477 28.09 235.139 26.3996 237.232 25.2443C239.324 24.089 241.678 23.5114 244.291 23.5114C246.895 23.5114 249.244 24.089 251.337 25.2443C253.439 26.3996 255.106 28.09 256.337 30.3153C257.568 32.5407 258.183 35.2538 258.183 38.4545ZM250.996 38.4545C250.996 36.5606 250.726 34.9602 250.186 33.6534C249.656 32.3466 248.889 31.357 247.885 30.6847C246.891 30.0123 245.693 29.6761 244.291 29.6761C242.899 29.6761 241.701 30.0123 240.698 30.6847C239.694 31.357 238.922 32.3466 238.382 33.6534C237.852 34.9602 237.587 36.5606 237.587 38.4545C237.587 40.3485 237.852 41.9489 238.382 43.2557C238.922 44.5625 239.694 45.5521 240.698 46.2244C241.701 46.8968 242.899 47.233 244.291 47.233C245.693 47.233 246.891 46.8968 247.885 46.2244C248.889 45.5521 249.656 44.5625 250.186 43.2557C250.726 41.9489 250.996 40.3485 250.996 38.4545ZM272.834 40.5568V53H265.888V31.1818H272.494V35.1875H272.735C273.218 33.8523 274.042 32.8059 275.207 32.0483C276.371 31.2812 277.759 30.8977 279.369 30.8977C280.903 30.8977 282.233 31.2434 283.36 31.9347C284.496 32.6165 285.377 33.5729 286.002 34.804C286.637 36.0256 286.949 37.4555 286.94 39.0938V53H279.994V40.4574C280.003 39.2453 279.695 38.2983 279.07 37.6165C278.455 36.9347 277.598 36.5938 276.499 36.5938C275.77 36.5938 275.126 36.7547 274.567 37.0767C274.018 37.3892 273.592 37.839 273.289 38.4261C272.995 39.0133 272.844 39.7235 272.834 40.5568ZM305.039 53.4119C302.757 53.4119 300.787 52.9621 299.13 52.0625C297.482 51.1534 296.213 49.8608 295.323 48.1847C294.442 46.4991 294.002 44.4962 294.002 42.1761C294.002 39.9223 294.447 37.9527 295.337 36.267C296.227 34.572 297.482 33.2557 299.101 32.3182C300.721 31.3712 302.629 30.8977 304.826 30.8977C306.379 30.8977 307.799 31.1392 309.087 31.6222C310.375 32.1051 311.488 32.8201 312.425 33.767C313.363 34.714 314.092 35.8835 314.613 37.2756C315.134 38.6581 315.394 40.2443 315.394 42.0341V43.767H296.431V39.733H308.931C308.921 38.9943 308.746 38.3362 308.405 37.7585C308.064 37.1809 307.596 36.7311 306.999 36.4091C306.412 36.0777 305.735 35.9119 304.968 35.9119C304.191 35.9119 303.495 36.0871 302.88 36.4375C302.264 36.7784 301.777 37.2472 301.417 37.8438C301.057 38.4309 300.867 39.0985 300.849 39.8466V43.9517C300.849 44.8419 301.024 45.6231 301.374 46.2955C301.724 46.9583 302.222 47.4744 302.866 47.8438C303.509 48.2131 304.277 48.3977 305.167 48.3977C305.782 48.3977 306.341 48.3125 306.843 48.142C307.345 47.9716 307.776 47.7206 308.135 47.3892C308.495 47.0578 308.765 46.6506 308.945 46.1676L315.323 46.3523C315.058 47.7822 314.475 49.0275 313.576 50.0881C312.686 51.1392 311.516 51.9583 310.067 52.5455C308.618 53.1231 306.942 53.4119 305.039 53.4119Z" fill="#4299E1"/>
<g filter="url(#filter0_ii_9_14)">
<path fill-rule="evenodd" clip-rule="evenodd" d="M16.433 10.895C19.7033 9.40397 23.3905 9.09728 26.8622 10.0275C28.5515 10.4802 29.5541 12.2166 29.1014 13.9059C28.6488 15.5952 26.9124 16.5977 25.223 16.1451C23.1716 15.5954 20.9928 15.7766 19.0603 16.6577C17.1278 17.5387 15.5621 19.0647 14.6317 20.9739C13.7013 22.8831 13.4642 25.0565 13.961 27.1215C14.4578 29.1864 15.6576 31.0141 17.3546 32.2911C18.2753 32.984 18.747 34.1222 18.5863 35.2631C18.4255 36.4041 17.6578 37.3677 16.5815 37.7792C14.4303 38.6018 12.454 39.8723 10.7941 41.5322C10.2349 42.0914 9.72003 42.6864 9.2516 43.3118C8.27554 44.6149 8.33918 45.7065 8.85286 46.684C9.45941 47.8382 10.8531 49.035 12.8246 49.6551C14.4929 50.1799 15.4199 51.9578 14.8951 53.6261C14.3703 55.2944 12.5924 56.2214 10.9241 55.6966C7.68839 54.6787 4.77901 52.5465 3.24648 49.6301C1.62107 46.537 1.70966 42.8164 4.18258 39.5149C4.83058 38.6498 5.54272 37.8269 6.3158 37.0539C7.50776 35.8619 8.81778 34.8151 10.2183 33.9248C9.09103 32.3319 8.26663 30.5284 7.80338 28.603C6.96261 25.1085 7.36391 21.4304 8.93844 18.1994C10.513 14.9685 13.1626 12.386 16.433 10.895ZM56.9387 16.6577C55.0062 15.7766 52.8274 15.5954 50.776 16.1451C49.0866 16.5977 47.3502 15.5952 46.8976 13.9059C46.4449 12.2166 47.4475 10.4802 49.1368 10.0275C52.6085 9.09728 56.2957 9.40397 59.566 10.895C62.8364 12.386 65.486 14.9685 67.0606 18.1994C68.6351 21.4304 69.0364 25.1085 68.1956 28.603C67.7324 30.5284 66.908 32.3319 65.7807 33.9248C67.1812 34.8151 68.4912 35.8619 69.6832 37.0539C70.4563 37.8269 71.1684 38.6498 71.8164 39.5149C74.2893 42.8164 74.3779 46.537 72.7525 49.6301C71.22 52.5465 68.3106 54.6787 65.0749 55.6966C63.4066 56.2214 61.6287 55.2944 61.1039 53.6261C60.5791 51.9578 61.5061 50.1799 63.1744 49.6551C65.1459 49.035 66.5396 47.8382 67.1461 46.684C67.6598 45.7065 67.7235 44.6149 66.7474 43.3118C66.279 42.6864 65.7641 42.0914 65.2049 41.5322C63.545 39.8723 61.5687 38.6018 59.4175 37.7792C58.3412 37.3677 57.5735 36.4041 57.4128 35.2631C57.252 34.1222 57.7237 32.984 58.6444 32.2911C60.3414 31.0141 61.5412 29.1864 62.038 27.1215C62.5348 25.0565 62.2977 22.8831 61.3673 20.9739C60.4369 19.0647 58.8712 17.5387 56.9387 16.6577ZM37.9999 22.1667C32.9475 22.1667 28.8518 26.2624 28.8518 31.3148C28.8518 36.3672 32.9476 40.4631 38 40.4631C43.0523 40.4631 47.1481 36.3673 47.1481 31.3148C47.1481 26.2624 43.0523 22.1667 37.9999 22.1667ZM48.2707 42.8991C51.4671 40.0629 53.4814 35.9241 53.4814 31.3148C53.4814 22.7646 46.5501 15.8333 37.9999 15.8333C29.4497 15.8333 22.5184 22.7646 22.5184 31.3148C22.5184 35.9241 24.5328 40.063 27.7292 42.8991C25.567 43.9858 23.5714 45.4185 21.8282 47.1617C21.0551 47.9348 20.343 48.7577 19.695 49.6228C18.2426 51.5617 17.5587 53.7227 17.6792 55.9036C17.7977 58.0509 18.681 59.9734 19.9437 61.5255C22.4286 64.5797 26.595 66.5002 30.9629 66.5002H45.037C49.4049 66.5002 53.5714 64.5797 56.0562 61.5255C57.3189 59.9734 58.2022 58.0509 58.3208 55.9036C58.4412 53.7228 57.7573 51.5617 56.305 49.6228C55.657 48.7577 54.9448 47.9348 54.1718 47.1617C52.4285 45.4185 50.4329 43.9858 48.2707 42.8991ZM38 46.7965C33.6141 46.7965 29.4078 48.5388 26.3065 51.6401C25.7473 52.1993 25.2324 52.7942 24.764 53.4196C24.1194 54.2802 23.972 54.9955 24.0029 55.5544C24.0356 56.1468 24.2861 56.8274 24.8565 57.5285C26.038 58.9807 28.3352 60.1668 30.9629 60.1668H45.037C47.6647 60.1668 49.962 58.9807 51.1434 57.5285C51.7138 56.8274 51.9644 56.1468 51.9971 55.5544C52.0279 54.9955 51.8806 54.2803 51.236 53.4196C50.7675 52.7943 50.2526 52.1993 49.6934 51.6401C46.5921 48.5388 42.3859 46.7965 38 46.7965Z" fill="#4299E1"/>
</g>
<defs>
<filter id="filter0_ii_9_14" x="0" y="0" width="76" height="80" filterUnits="userSpaceOnUse" color-interpolation-filters="sRGB">
<feFlood flood-opacity="0" result="BackgroundImageFix"/>
<feBlend mode="normal" in="SourceGraphic" in2="BackgroundImageFix" result="shape"/>
<feColorMatrix in="SourceAlpha" type="matrix" values="0 0 0 0 0 0 0 0 0 0 0 0 0 0 0 0 0 0 127 0" result="hardAlpha"/>
<feOffset dy="4"/>
<feGaussianBlur stdDeviation="2"/>
<feComposite in2="hardAlpha" operator="arithmetic" k2="-1" k3="1"/>
<feColorMatrix type="matrix" values="0 0 0 0 0 0 0 0 0 0 0 0 0 0 0 0 0 0 0.25 0"/>
<feBlend mode="normal" in2="shape" result="effect1_innerShadow_9_14"/>
<feColorMatrix in="SourceAlpha" type="matrix" values="0 0 0 0 0 0 0 0 0 0 0 0 0 0 0 0 0 0 127 0" result="hardAlpha"/>
<feOffset dy="4"/>
<feGaussianBlur stdDeviation="2"/>
<feComposite in2="hardAlpha" operator="arithmetic" k2="-1" k3="1"/>
<feColorMatrix type="matrix" values="0 0 0 0 0 0 0 0 0 0 0 0 0 0 0 0 0 0 0.25 0"/>
<feBlend mode="normal" in2="effect1_innerShadow_9_14" result="effect2_innerShadow_9_14"/>
</filter>
</defs>
</svg>
